<svg width="48" height="40" viewBox="0 0 48 40" fill="none" xmlns="http://www.w3.org/2000/svg">
<path d="M15.1055 29.4453C15.207 29.5469 15.3242 29.6133 15.457 29.6445C15.5977 29.6836 15.7344 29.6836 15.8672 29.6445C16 29.6133 16.1172 29.5469 16.2188 29.4453L24 21.6758L31.7695 29.4453C31.8633 29.5469 31.9766 29.6133 32.1094 29.6445C32.25 29.6836 32.3867 29.6875 32.5195 29.6562C32.6602 29.625 32.7812 29.5547 32.8828 29.4453C32.9844 29.3438 33.0508 29.2266 33.082 29.0938C33.1133 28.9609 33.1133 28.8281 33.082 28.6953C33.0508 28.5547 32.9844 28.4336 32.8828 28.332L25.1133 20.5625L32.8828 12.7812C32.9844 12.6797 33.0508 12.5625 33.082 12.4297C33.1211 12.2969 33.1211 12.1641 33.082 12.0312C33.0508 11.8906 32.9844 11.7734 32.8828 11.6797C32.7734 11.5703 32.6523 11.5 32.5195 11.4688C32.3867 11.4297 32.25 11.4297 32.1094 11.4688C31.9766 11.5 31.8633 11.5703 31.7695 11.6797L24 19.4492L16.2188 11.6797C16.1172 11.5703 15.9961 11.5 15.8555 11.4688C15.7227 11.4297 15.5898 11.4297 15.457 11.4688C15.3242 11.5 15.207 11.5703 15.1055 11.6797C15.0039 11.7734 14.9336 11.8906 14.8945 12.0312C14.8633 12.1641 14.8633 12.2969 14.8945 12.4297C14.9336 12.5625 15.0039 12.6797 15.1055 12.7812L22.875 20.5625L15.1055 28.332C15.0039 28.4336 14.9336 28.5547 14.8945 28.6953C14.8633 28.8281 14.8633 28.9609 14.8945 29.0938C14.9258 29.2266 14.9961 29.3438 15.1055 29.4453Z" fill="white" fill-opacity="1"/>
</svg>
